<?xml version="1.0" encoding="UTF-8"?><svg xmlns="http://www.w3.org/2000/svg" viewBox="0 0 557.48 511"><defs><style>.cls-1,.cls-2,.cls-3,.cls-4,.cls-5,.cls-6,.cls-7,.cls-8,.cls-9,.cls-10,.cls-11,.cls-12{stroke:#231f20;}.cls-1,.cls-3,.cls-4,.cls-5,.cls-6,.cls-13,.cls-7,.cls-8,.cls-14,.cls-10,.cls-11,.cls-12{stroke-miterlimit:10;}.cls-1,.cls-8,.cls-14,.cls-12{fill:none;}.cls-1,.cls-10,.cls-11{stroke-width:3px;}.cls-2{stroke-miterlimit:10;stroke-width:2px;}.cls-2,.cls-3,.cls-15{fill:#231f20;}.cls-3,.cls-4,.cls-5,.cls-6,.cls-8,.cls-14{stroke-width:2px;}.cls-4{fill:#a55231;}.cls-5,.cls-16{fill:#c4996c;}.cls-6{fill:#d35b30;}.cls-13{stroke:#925f42;}.cls-13,.cls-17{fill:#925f42;}.cls-7{fill:#fff;}.cls-14{stroke:#2d2521;}.cls-9{stroke-miterlimit:10;stroke-width:3px;}.cls-9,.cls-10{fill:#191817;}.cls-11{fill:#e53726;}.cls-12{stroke-width:7px;}.cls-18{fill:#f8cea0;}.cls-18,.cls-19,.cls-20,.cls-15,.cls-16,.cls-21,.cls-22,.cls-17,.cls-23,.cls-24{stroke-width:0px;}.cls-19{fill:#2d2521;}.cls-20{fill:#1c75bc;}.cls-21{fill:#be1e2d;}.cls-22{fill:#94402c;}.cls-23{fill:#fee000;}.cls-24{fill:#f6b8a1;}</style></defs><g id="Layer_2"><path class="cls-16" d="m101.6,447.29c0,.85,3.6,7.95,3.95,8.75,1.96,4.52.2,13.2-2.54,14.96-2.89,1.86-12.79-9.17-13.42-7.59-.81,2.04,4.59,5.89,5.24,8.01,5.66,18.47,2.76,22.17-3.11,21.89-3.52-.17-7.74-1.94-11.87-.24-2.51,1.03-7.58,2.65-6.92,3.39,2.72,3.03,3.08,7.62,1.85,9.84-2.48,4.44-11.69,1.97-18.07,2.26-12.11.55-22.18-4.2-32.62-7.3-15.3-4.55-17.64-5.14-17.64-21.78,0-8.6,1.94-16.33,5.58-23.04,4.15-7.65,10.5-13.97,18.71-18.75,5.3-3.09,12.03-13.17,18.07-20.33,3.25-3.86,12.5-9.6,16.09-9.6,8.35,0,11.87-1.26,18.92,1.98,10.73,4.93,10.51,6.8,15.81,16.94,3.57,6.83,1.98,12.47,1.98,20.61Z"/></g><g id="Layer_3"><path class="cls-18" d="m337.59,208.65c1.34,12.85-3.16,18.34-13.36,25.86-5.36,3.95-20.87,7.46-21.44,10-.35,1.6-.37,3.54-.65,6.36s.28,3.06-.6,6.11c-.84,2.91-9.2,9.72-11.25,9.69-20.26-.28-45.4,6.66-22.45-14.59.77-.71.41-6.42.71-8.56.74-5.31-10.24-10.16-20.75-9.46-11.97.8-21.46-15.41-21.46-28.52,0-32.12,28.01-56.1,58.89-56.14,23.72-.03,37.87,12.19,45.16,32.28,1.03,2.85-1.47,9.57.85,13.69,2.54,4.52,5.91,9.02,6.35,13.27Z"/></g><g id="Layer_4"><path class="cls-19" d="m243.12,195.62l23.95-35.63,2.49,25.66,19.93-29.39,20.92,16.94-1.74-15.94,18.43,14.94c-.35-4.28-1.71-13.3-8.22-21.92-11.32-14.98-28.97-16.49-31.88-16.69-5.76-1.12-15.72-2.31-27.65.25-11.35,2.43-19.64,7.21-24.41,10.46-2.91-6.39-5.81-12.79-8.72-19.18l-2.49,18.43-16.69,7.97,15.44,5.48c-2.48,3.44-5.38,8.18-7.72,14.2-2.95,7.57-3.93,14.35-4.23,19.18-.09,3.86.27,10.37,3.24,17.68,3.58,8.8,9.13,14.3,12.2,16.94,3.88,2.48,8.45,5.07,13.7,7.47,7.04,3.22,13.59,5.32,19.18,6.73,2.91.42,5.81.83,8.72,1.25l-20.67-16.69c-3.24-.58-6.48-1.16-9.71-1.74-1.37-.67-6.42-3.37-8.97-9.47-2.1-5.03-1.29-9.48-1-10.96.46-2.35.88-4.45,2.49-5.98,2.83-2.68,8.18-2.54,13.41.01Z"/></g><g id="Layer_5"><line class="cls-23" x1="230" y1="267.18" x2="263.4" y2="254"/><path class="cls-23" d="m229.6,269.44c3.86-2.63,8.6-5.44,14.22-7.99,7.62-3.45,14.63-5.42,20.32-6.58.38.64,6.75,10.99,19.15,11.28,8.24.19,15.98-4.14,20.21-11.28,5.56,1.85,11.93,4.44,18.68,8.11,4.32,2.35,8.16,4.79,11.51,7.17-34.7-.23-69.39-.47-104.09-.7Z"/><path class="cls-23" d="m406.53,270.57c1.52-2.24,4.74-6.35,10.3-9.48,5.73-3.23,11.08-3.81,13.8-3.91,1.94,2.23,9.14,9.99,20.6,11.12,12.71,1.26,25.52-6.13,32.34-18.75,4.39-.96,8.79-1.92,13.18-2.88,5.87,1.24,12.77,3.21,20.19,6.39,12.24,5.24,21.46,11.88,27.81,17.31-30.08-.08-60.16-.08-90.23,0-16,.04-32,.11-48,.21Z"/></g><g id="Layer_6"><path class="cls-17" d="m409.85,186.3l-4.12,20.16c-.93,2.13-4.84,11.79-.71,22.77,2.95,7.85,8.46,12.23,10.79,13.88,3.44,1.58,7.5,3.19,12.15,4.56,4.62,1.37,8.87,2.22,12.59,2.77.46,1.37.92,2.75,1.37,4.12-3.96,1.03-7.92,2.07-11.87,3.1,1.74,2.11,6,6.7,13.12,8.99,4.59,1.48,8.62,1.43,11.12,1.19,3.17-.15,8.09-.8,13.43-3.38,9.14-4.42,13.73-11.71,15.41-14.73-5.04,1.08-10.09,2.15-15.13,3.23.02-2.74.05-5.48.07-8.23,3.5-2.14,8.13-5.46,12.68-10.43,4.82-5.27,7.81-10.49,9.63-14.32,1.88-.51,5.36-1.74,8.2-4.86,5.56-6.1,6.96-17.56,1.43-21.56-4.01-2.9-10.07-.72-11.58-.13-10.46-12.15-20.93-24.31-31.39-36.46l-41.69,10.08-5.5,19.24Z"/><path class="cls-17" d="m376.92,270.84c-2.33-3.43-4.35-4.25-5.8-4.32-1.77-.09-3.14.9-5.06.21-1.23-.44-2.04-1.33-2.53-2-.38-1-.69-2.33-.42-3.8.22-1.23.65-1.45.84-2.74.28-1.86-.47-2.23-.32-3.9.18-1.87,1.16-1.79,1.79-4.11.65-2.39-.23-3.04.63-4.43.91-1.46,2.03-.97,2.95-2.53.78-1.33.28-2.19,1.16-3.37.64-.86,1.55-1.27,2.21-1.48,2.13.3,5,.99,8.01,2.64,7.24,3.96,10.21,10.65,11.13,13.01,2.02,2.82,4.73,6.12,8.28,9.46,3.56,3.35,7.03,5.86,9.97,7.71-10.95-.11-21.9-.22-32.86-.32Z"/></g><g id="Layer_8"><path class="cls-15" d="m61.9,408.51c6.41-8.37,12.82-16.74,19.23-25.11,4.66,2.96,9.33,5.93,13.99,8.89,26.97-34.9,53.95-69.79,80.92-104.69,1.37,6.3,2.75,12.61,4.12,18.91-24.28,32.58-48.56,65.17-72.84,97.75l13.58,9.99-16.38,21.97c-.26-.15-.64-.4-1.03-.78-1.57-1.53-1.65-3.59-1.96-5.62-.24-1.52-.7-3.62-1.7-6.15,2.18-2.53,4.36-5.06,6.54-7.59-8.28-6.23-16.57-12.47-24.85-18.7-2.44,3.1-4.88,6.19-7.32,9.29-4.1.61-8.2,1.22-12.29,1.83Z"/></g><g id="Layer_1"><g id="Layer_35"><ellipse class="cls-13" cx="473.53" cy="219.3" rx="6.35" ry="6.47"/><ellipse class="cls-22" cx="472.71" cy="218.47" rx="7.3" ry="7"/><ellipse class="cls-22" cx="415.69" cy="219.38" rx="7.3" ry="7"/><path class="cls-18" d="m312.44,238.3c-1.1-4.86-3.66-9.3-7.32-12.69l-5.58,5.58c2.87,2.29,5.76,4.57,8.63,6.88,3.07,2.44,7.4.22,6.59-3.83-.91-4.57-2.63-8.96-5-12.96s-7.95-1.21-7.21,3.04c.49,2.81,1.64,5.5,3.33,7.79,1.26,1.7,3.42,2.57,5.39,1.42s2.43-3.52,1.42-5.39c-.96-1.78-1.69-3.58-2.25-5.52l-6.59,3.83c2,2.4,4.34,4.42,6.92,6.18,2.73,1.86,5.63-.69,5.93-3.41.44-3.93.58-7.87.41-11.83l-7.74,1.04c1.21,3.53,2.41,7.08,3.63,10.61.63,1.84,2.32,3.12,4.32,2.82,1.8-.27,3.58-1.89,3.42-3.88-.06-.74-.11-1.48-.19-2.22l-7.74,1.04c.57,2.55,1.55,4.98,2.82,7.27l2.35-5.79c-2.81.88-5.49,2.13-7.92,3.78s-2.71,6.65.95,7.21c2.66.39,5,.16,7.35-1.26,3.69-2.21,1.28-8.83-3.04-7.21-12.63,4.78-26.35,6.26-39.67,3.94l-1.04,7.74c3.31.05,6.72.66,9.89-.57,1.88-.73,3.42-1.97,4.32-3.78.6-1.21.82-2.52.46-3.83-.13-.44-.35-.9-.57-1.29-.27-.47-.13-.63-.02.13v2.1c-.5,1.8-1.21.98-.38,1.06-.22-.02.76-.03.8-.03.91-.03,1.81,0,2.73-.06,1.75-.13,3.31-1.14,3.8-2.9.43-1.55-.24-3.77-1.81-4.45-1.06-.46-2.1-.91-3.15-1.37-1.96-.85-4.23-.57-5.39,1.42-.99,1.7-.52,4.48,1.42,5.39,4.53,2.13,9.19,3.72,14.11,4.62,2.1.38,4.26-.57,4.86-2.76.52-1.91-.65-4.46-2.76-4.86-4.23-.77-8.34-2-12.24-3.83l-3.97,6.81c1.06.46,2.1.91,3.15,1.37l1.99-7.35c-2.49.17-5.16-.17-7.44,1.04s-4.73,4.48-2.84,7.14c.44.63.35,1.06.3-.73-.32-.6-.28-1.04.11-1.36-.33.33-.38.38-.14.13.62-.17-.63.17-.63.19-.65.14-.05.05-.77.09-1.94.09-3.88-.16-5.82-.21-4.32-.08-5.52,6.97-1.04,7.74,14.71,2.57,29.87,1.36,43.87-3.94l-3.04-7.21c-.35.21-.82.54-1.28.47l.95,7.21c1.89-1.29,3.85-2.3,6.02-3,2.44-.77,3.64-3.52,2.35-5.79-.96-1.72-1.59-3.45-2.03-5.38-.95-4.26-8.18-3.42-7.74,1.04.08.74.13,1.48.19,2.22l7.74-1.04c-1.21-3.53-2.41-7.08-3.63-10.61-1.37-4.01-7.93-3.63-7.74,1.04.16,3.96.02,7.88-.41,11.83l5.93-3.41c-2.02-1.37-3.75-3.06-5.31-4.94-2.59-3.09-7.66.24-6.59,3.83.76,2.57,1.8,5.05,3.06,7.4l6.81-3.97c-1.36-1.84-2.14-3.66-2.54-5.91l-7.21,3.04c2.07,3.47,3.42,7.11,4.21,11.07l6.59-3.83c-2.87-2.29-5.76-4.57-8.63-6.88-1.67-1.32-3.94-1.62-5.58,0-1.47,1.47-1.58,4.13,0,5.58,2.74,2.52,4.46,5.58,5.28,9.21,1.14,4.95,8.74,2.85,7.6-2.1h.02Z"/><ellipse class="cls-24" cx="274.69" cy="212.98" rx="8.28" ry="8.03"/><ellipse class="cls-24" cx="327.5" cy="202.62" rx="7.33" ry="7.11"/><path class="cls-20" d="m371.68,3.27c-8.34,1.67-18.01,4.35-21.92,12.82-.91,1.99-1.84,4.48-1.26,6.69.68,2.65,3.09,4.12,5.72,4.15,2.25.02,4.71-.8,6.84-1.45,2.33-.73,4.6-1.64,6.83-2.65l-5.39-5.39c-3.17,7.22-5.85,14.62-7.93,22.22-1.15,4.24,5.06,7.05,7.21,3.04,3.52-6.59,7.05-13.17,10.57-19.76l-7.35-1.99c-.79,12.77-1.58,25.55-2.37,38.32-.19,3.17,3.44,4.65,5.93,3.41s3.88-3.75,4.76-6.34c.99-2.96,1.73-6.02,2.55-9.05,1.73-6.35,3.34-12.73,4.87-19.13l-7.74-1.04c-.88,6.76-1.89,13.53-3,20.28-.55,3.42-1.15,6.83-1.75,10.23-.3,1.64-.6,3.28-.9,4.92-.16.88-.33,1.77-.5,2.65-.13.66-.66,2-.5,2.65-.14.22-.17.41-.08.62l1.32-.8s-1.56-.3-1.61-.32c-.98-.32-1.88-.8-2.74-1.36-2.1-1.34-3.86-3.3-5.31-5.3-3.56-4.95-6.13-10.49-10.19-15.11-1.14-1.29-3.34-1.45-4.78-.62-1.61.95-2.11,2.71-1.81,4.45,1.14,6.67,2.29,13.34,3.42,20.01l5.79-4.45c-2.6-1.89-4.95-4.05-7.14-6.4-2.71-2.9-7.65.11-6.59,3.83,2.85,10.06,7.77,19.25,14.38,27.34,1.23,1.5,3.77,1.42,5.17.32,1.64-1.31,1.84-3.25,1.01-5.09-2.41-5.31-4.29-10.85-5.74-16.51l-6.59,3.83c2.57,3.31,5.14,6.62,7.7,9.93,1.18,1.53,3.8,1.4,5.17.32,1.66-1.32,1.83-3.23,1.01-5.09-1.48-3.42-2.57-7.51-5.35-10.04-2.4-2.18-4.56-4.62-6.35-7.32-3.72-5.53-6.02-11.73-6.94-18.34-.27-1.91-2.62-3.07-4.32-2.82-1.89.28-3.45,1.88-3.42,3.88.11,5.28,1.1,10.5,3.09,15.41.8,1.97,2.62,3.36,4.86,2.76s3.25-2.78,2.76-4.86c-1.45-6.09-2.46-12.57-1.37-18.8.91-5.33,3.3-10.25,6.92-14.27,7.98-8.83,19.77-12.3,31.41-12.25l-3.8-4.98c-1.29,3.22-4.98,5.2-8.33,5.08-2.44-.09-4.64-.27-7.06.32s-4.57,1.62-6.51,2.98c-8.97,6.26-11.51,16.83-13.29,27l7.6,2.1c.76-4.89,1.89-9.7,3.42-14.41l-7.74-1.04c.28,7.55.22,15.12-.19,22.68-.11,2.13,1.89,3.94,3.94,3.94,2.32,0,3.72-1.81,3.94-3.94.73-6.91,2.02-13.75,3.78-20.47l-7.74-1.04c.73,11.5.74,23.01.08,34.49h7.88c.39-8.15,1.14-16.29,2.27-24.38l-7.74-1.04c.63,9.07,1.26,18.13,1.89,27.22.35,5.03,7.68,5.11,7.88,0,.35-8.78.03-17.57-.96-26.3l-7.74,1.04c1.64,10.39,3.94,20.64,6.91,30.73,1.25,4.24,7.73,3.45,7.74-1.04.03-7.22-.6-14.4-1.78-21.52l-7.6,2.1c1.07,4.18,2.13,8.37,3.2,12.55l7.6-2.1c-1.8-6.75-3.11-13.61-3.83-20.56l-7.74,1.04c1.58,10.58,4.07,20.99,7.41,31.16l7.21-3.04c-3.23-7.36-6.13-14.85-8.7-22.47-1.28-3.78-2.48-7.62-3.6-11.45-.55-1.92-1.1-3.85-1.61-5.79-.32-1.21-1.06-3.07-.44-4.29l-6.2.8c1.7,1.34,2.7,2.76,3.17,4.87l1.81-4.45c-7.17,3.45-15.42,8.37-16.79,16.97l7.74,1.04c.03-3.44.06-6.86.09-10.3.02-1.94-1.51-3.64-3.42-3.88-2.11-.25-3.53.96-4.32,2.82-2.54,6.04-4.94,12.11-5.44,18.7s1.15,12.54,3.85,18.17c5.41,11.31,15.58,19.27,25.73,26.11l3.97-6.81c-6.61-2.81-5.6-11.21-5.03-17.05l-7.35,1.99c2.27,4.48,4.56,8.97,6.83,13.45,1.75,3.44,7.58,1.88,7.35-1.99-.3-4.71-.6-9.41-.9-14.13l-7.74,1.04c.99,5.68,1.59,11.4,1.84,17.16.19,4.24,6.8,5.6,7.74,1.04,2.68-12.96,4.49-26.08,6.07-39.23.74-6.26,1.53-12.54,2.11-18.81.58-6.28.36-12.11-2.33-17.72l-6.81,3.97c1.47,2.68,3.23,5.16,5.2,7.47,2.11,2.49,5.61.74,6.59-1.73,1.5-3.8,2.79-7.66,3.85-11.61.49-1.83,1.17-3.78,1.02-5.71-.17-2.44-1.89-4.15-4.16-4.81-7.51-2.22-16.18-.55-22.98,2.98-4.51,2.33-.52,9.15,3.97,6.81,2.59-1.34,5.41-2.25,8.29-2.62,1.56-.21,3.17-.22,4.73-.13.55.03,1.1.06,1.64.14.44.06.88.14,1.32.24.98.32.91.13-.17-.58l-.54-1.99c.22,1.84-1.15,5.12-1.77,7.17-.84,2.73-1.78,5.39-2.82,8.04l6.59-1.73c-1.55-1.81-2.82-3.8-3.97-5.88-1.02-1.86-3.6-2.46-5.39-1.42-1.96,1.15-2.33,3.47-1.42,5.39,2.22,4.64,1.64,10.16,1.12,15.09-.65,6.09-1.34,12.16-2.07,18.24-1.47,12.19-3.22,24.33-5.69,36.36l7.74,1.04c-.28-6.47-1.01-12.88-2.13-19.25-.77-4.35-8.03-3.37-7.74,1.04.3,4.71.6,9.41.9,14.13l7.35-1.99c-2.27-4.48-4.56-8.97-6.83-13.45-.79-1.55-2.84-2.25-4.45-1.81-1.78.49-2.73,2.05-2.9,3.8-.84,8.59-.43,19.9,8.94,23.86,1.96.84,4.23.58,5.39-1.42s.36-4.19-1.42-5.39c-8.91-5.99-17.71-12.87-22.61-22.69-2.29-4.59-3.44-9.67-3.06-14.78.43-5.77,2.95-11.34,5.16-16.6l-7.74-1.04c-.03,3.44-.06,6.86-.09,10.3-.05,4.3,7.03,5.53,7.74,1.04,1.04-6.5,7.82-9.68,13.17-12.25,1.61-.77,2.18-2.84,1.81-4.45-.74-3.26-2.55-6.28-5.2-8.34-1.84-1.45-4.94-1.7-6.2.8-2.14,4.27-.87,8.55.33,12.9s2.59,8.88,4.04,13.28c2.9,8.75,6.26,17.35,9.98,25.78,1.8,4.08,8.59,1.18,7.21-3.04-3.36-10.16-5.83-20.58-7.41-31.16-.65-4.35-8.2-3.37-7.74,1.04.79,7.65,2.11,15.22,4.1,22.66,1.31,4.9,8.86,2.82,7.6-2.1-1.07-4.18-2.13-8.37-3.2-12.55-.52-2.07-2.82-3.31-4.86-2.76-2.22.62-3.11,2.74-2.76,4.86,1.06,6.42,1.53,12.91,1.5,19.43l7.74-1.04c-2.96-10.09-5.27-20.34-6.91-30.73-.68-4.34-8.25-3.37-7.74,1.04.99,8.74,1.32,17.52.96,26.3h7.88c-.63-9.07-1.26-18.13-1.89-27.22-.14-1.96-1.39-3.63-3.42-3.88-1.73-.21-4.05.87-4.32,2.82-1.25,8.78-2.13,17.61-2.55,26.48-.25,5.08,7.58,5.05,7.88,0,.66-11.5.63-23.01-.08-34.49-.27-4.29-6.58-5.53-7.74-1.04-1.94,7.41-3.26,14.95-4.07,22.57h7.88c.39-7.55.46-15.11.19-22.68-.16-4.48-6.35-5.3-7.74-1.04-1.53,4.71-2.68,9.51-3.42,14.41-.32,2.1.54,4.24,2.76,4.86,1.91.52,4.48-.65,4.86-2.76,1.5-8.58,3.26-19.96,12.36-23.86,1.92-.82,3.77-.93,5.8-.74,2.37.22,4.76-.05,7-.88,4.73-1.77,8.15-5.24,10.03-9.89.99-2.43-1.48-4.98-3.8-4.98-13.78-.05-28.08,4.38-37.37,15.01-4.29,4.92-7.43,10.83-8.56,17.3-1.36,7.7-.43,15.45,1.37,22.99l7.6-2.1c-1.73-4.27-2.71-8.69-2.81-13.31l-7.74,1.04c.96,6.99,3.53,13.8,7.38,19.7,1.91,2.92,4.1,5.68,6.58,8.12.58.58,1.29,1.1,1.84,1.72s.74,1.34,1.12,2.21l2.52,5.82,6.2-4.78c-2.57-3.31-5.14-6.62-7.7-9.93-1.06-1.36-3.41-1.42-4.78-.62-1.51.88-2.25,2.76-1.81,4.45,1.62,6.32,3.85,12.44,6.54,18.39l6.2-4.78c-5.72-7-9.89-15.19-12.36-23.87l-6.59,3.83c2.66,2.84,5.6,5.35,8.75,7.63s6.31-1.45,5.79-4.45c-1.14-6.67-2.29-13.34-3.42-20.01l-6.59,3.83c4.6,5.24,7.14,11.92,11.83,17.12,3.69,4.1,12.41,10.49,17.79,5.71,2.79-2.48,2.84-7.4,3.47-10.83.69-3.78,1.37-7.57,2-11.37,1.37-8.2,2.57-16.42,3.64-24.65.25-1.91-1.69-3.67-3.42-3.88-1.88-.22-3.86.88-4.32,2.82-1.34,5.66-2.76,11.31-4.27,16.94-.73,2.7-1.47,5.38-2.22,8.06-.41,1.43-.68,4.13-2.07,4.83l5.93,3.41c.79-12.77,1.58-25.55,2.37-38.32.24-3.91-5.55-5.36-7.35-1.99-3.52,6.59-7.05,13.17-10.57,19.76l7.21,3.04c1.89-6.94,4.24-13.75,7.13-20.34,1.62-3.69-1.67-7.08-5.39-5.39-1.72.77-3.48,1.42-5.28,1.96-.9.27-1.8.5-2.71.73-.38.09-1.04.11-1.37.3-.69.41-.49-.88.73.47l1.01,1.73-.13.43c.05-.28.13-.57.21-.85.09-.33.19-.66.33-.96.32-.73.77-1.45,1.26-2.07,1.04-1.32,2.41-2.37,3.85-3.2,3.64-2.1,7.9-2.85,11.97-3.66,2.08-.41,3.3-2.9,2.76-4.86-.6-2.18-2.76-3.17-4.86-2.76h0l.03-.06Z"/><path class="cls-20" d="m368.79,101.23c5.46-25.31,19.52-48.11,21.98-74.16.52-5.49,2.22-16.94-5.85-17.49-1.86-.13-3.19,1.34-3.8,2.9-5,12.49-7.05,26.13-5.99,39.53.39,5.01,7.66,5.12,7.88,0,.58-13.84,3.15-27.47,7.54-40.6,1.61-4.83-6.01-6.89-7.6-2.1-4.6,13.78-7.21,28.19-7.82,42.7h7.88c-1.01-12.82.93-25.51,5.71-37.45l-3.8,2.9c-.84-.08-1.45-.39-1.86-.98.11.5.14.62.08.33-.24.76.08,2.13.08,2.93,0,1.7-.05,3.42-.16,5.12-.24,3.55-.74,7.06-1.45,10.55-1.48,7.35-3.75,14.52-6.28,21.57-5,13.94-11.01,27.58-14.14,42.12-1.07,4.95,6.53,7.06,7.6,2.1h0v.02Z"/><path class="cls-21" d="m362.09,106.63c5.08,0,5.08-7.88,0-7.88s-5.08,7.88,0,7.88h0Z"/><path class="cls-20" d="m359.73,106.93c5.08,0,5.08-7.88,0-7.88s-5.08,7.88,0,7.88h0Z"/><path class="cls-20" d="m367.14,105.66c5.08,0,5.08-7.88,0-7.88s-5.08,7.88,0,7.88h0Z"/><path class="cls-20" d="m372.07,98.2c5.9-9.89,11.65-19.98,18.04-29.55,2.89-4.32,6.72-7.62,10.74-10.83s8.29-6.54,13.07-8.85l-4.78-6.2c-4.32,4.56-8.67,9.1-12.88,13.75-2,2.21-3.96,4.45-5.87,6.75s-4.98,5.16-3.77,8.5c.8,2.22,3.55,3.89,5.79,2.35,5.88-4.04,11.46-8.48,16.68-13.34,3.22-3-1.06-8.78-4.78-6.2-7.71,5.38-14.84,11.5-21.22,18.37-1.32,1.43-1.72,4.21,0,5.58,3.36,2.68,6.18.68,9.11-1.5,2.63-1.96,5.14-4.04,7.55-6.24,4.65-4.26,9.81-8.86,13.04-14.33,1.66-2.81-.55-5.61-3.41-5.93-2.54-.28-4.23,1.77-5.71,3.47s-2.9,3.53-4.23,5.39c-2.44,3.42-5.49,7.49-5.36,11.89.11,3.61,4.15,4.94,6.73,2.79,6.18-5.16,11.43-11.35,15.56-18.26.9-1.5.6-3.55-.62-4.78-3.89-3.94-8.4,1.34-10.57,4.46s-4.83,8.59-2.37,12.08c1.34,1.91,3.89,2.6,6.07,1.88s3.72-2.54,5.05-4.34c2.44-3.31,3.66-7.4,3.67-11.51,0-2.3-2.57-4.81-4.98-3.8-2.87,1.2-4.32,3.61-5.74,6.29s-2.44,5.44-3.19,8.33c-.99,3.94,3.69,6.42,6.59,3.83,1.69-1.5,3.23-3.12,4.64-4.87l-6.59-3.83c-.52,2.4-1.04,4.79-1.56,7.19-.79,3.6,3.8,6.95,6.59,3.83,1.47-1.64,2.82-3.39,4.05-5.22l-7.21-.95c-.08-.32.08-.65-.17-.28s-.43.88-.62,1.29c-.47.96-.96,1.91-1.47,2.85-.79,1.48-1.51,3.04-2.92,4.04s-3.17,1.75-4.7,2.71c-1.84,1.17-3.6,2.49-5.27,3.89l6.2,4.78c1.59-2.21,3.17-4.42,4.76-6.62,1.43-2,3.17-3.96,3.75-6.4.74-3.07-1.89-5.42-4.86-4.86-3.37.65-6.15,3.44-6.83,6.81-.6,3.07,1.8,5.44,4.86,4.86,4.45-.85,8.15-3.58,10.61-7.32.93-1.42.6-3.63-.62-4.78-3.71-3.5-8.47.46-11.53,2.92s-5.76,5.71-7.81,9.18c-.99,1.69-.54,3.93,1.01,5.09,1.69,1.26,3.6.96,5.17-.32,3.86-3.11,4.04-10.79-2.21-10.91-4.23-.08-8.55,2.46-11.43,5.38s.09,7.36,3.83,6.59c2.16-.44,4.19-1.62,5.57-3.36,1.12-1.39,1.58-3.15.62-4.78-.84-1.42-2.82-2.4-4.45-1.81-4.3,1.56-7.71,4.16-10.38,7.87s3.14,7.96,6.2,4.78c1.5-1.58,2.85-3.28,3.3-5.46.74-3.63-2.63-5.79-5.79-4.45s-4.49,4.51-6.48,7.13c-2.4,3.15-5.91,5.74-8.8,8.44-2.73,2.54.11,8.09,3.83,6.59,9.27-3.74,17.76-8.75,25.47-15.11,1.64-1.36,1.4-4.18,0-5.58-1.64-1.64-3.93-1.36-5.58,0-3.94,3.2-8.23,5.91-12.74,8.23-3.31,1.7-1.94,7.85,1.99,7.35,6.1-.79,11.24-3.56,16.42-6.76,4.34-2.7.54-9.07-3.97-6.81-4.78,2.4-9.51,4.89-14.18,7.46s-.47,9.27,3.97,6.81c4.68-2.59,9.4-5.08,14.18-7.46l-3.97-6.81c-3.8,2.35-7.88,5.09-12.43,5.69l1.99,7.35c5.12-2.63,9.87-5.83,14.35-9.46l-5.58-5.58c-6.59,5.42-14.07,9.89-22,13.09l3.83,6.59c2.84-2.63,5.96-5.16,8.5-8.07,1.67-1.91,2.78-5.24,5.19-6.26l-5.79-4.45c-.19.9-.65,1.31-1.28,1.97l6.2,4.78c1.39-1.94,3.44-3.44,5.66-4.26l-3.83-6.59c-.65.82-1.09,1.12-2.1,1.32l3.83,6.59c.91-.93,1.88-1.67,3.06-2.25.65-.32,2.08-.91,2.48-.76l-1.73-1.01.33.35-1.01-1.73c-.21-.79.14-.82-.62-.21l6.2,4.78c1.29-2.21,2.81-4.15,4.65-5.91.84-.79,1.69-1.55,2.63-2.19.52-.36,1.06-.71,1.59-1.04.27-.17.54-.33.82-.49.55-.39.71-.46.44-.16h-2.1l.38.06-1.73-1.01.27.25-.62-4.78c-1.39,2.11-3.45,3.23-5.9,3.71l4.86,4.86c.19-.93.39-1.12,1.31-1.29l-4.86-4.86c-.44,1.83-2.33,3.64-3.42,5.16-1.43,2-2.87,3.99-4.3,5.99-1.14,1.58-.43,4.01,1.01,5.09,1.66,1.25,3.63.99,5.17-.32,3.61-3.03,8.59-4.54,11.57-8.23,1.51-1.88,2.6-4.07,3.67-6.21,1.23-2.46,2.66-4.89,1.91-7.71-.91-3.45-5.36-3.66-7.21-.95-.87,1.28-1.8,2.46-2.82,3.63l6.59,3.83c.52-2.4,1.04-4.79,1.56-7.19.76-3.48-3.93-7.16-6.59-3.83-1.4,1.77-2.95,3.37-4.64,4.87l6.59,3.83c.47-1.89,1.06-3.77,1.92-5.52.71-1.47,1.56-3.45,2.79-4.42l-1.73,1.01.44-.19-4.98-3.8c0,1.58-.24,3.14-.85,4.62-.32.76-.74,1.48-1.2,2.16-.22.33-.46.62-.71.91-.14.16-.27.3-.43.46-.8.71-.09.93,2.16.66l1.01,1.73c.16.54-.17.87.09.03.16-.49.28-.99.46-1.48.28-.76.65-1.47,1.06-2.16.71-1.2,1.78-2.84,3.01-3.5l-1.99.54.39-.03-2.79-1.15.22.24-.62-4.78c-3.82,6.35-8.64,11.91-14.33,16.65l6.73,2.79c-.06-2.4,2.4-5.19,3.69-7.06.79-1.14,1.61-2.25,2.49-3.33.73-.88,1.81-2.6,2.78-3.07l-1.99.54.46.05-3.41-5.93c-2.43,4.12-6.31,7.52-9.75,10.8-1.78,1.7-3.61,3.37-5.5,4.95-.82.69-1.66,1.36-2.52,2-.57.43-1.14.84-1.72,1.23l-.58.39c-.85.49-.77.54.24.16l2.79,1.15-.28-.22v5.58c5.93-6.39,12.47-12.16,19.63-17.14l-4.78-6.2c-4.73,4.4-9.76,8.45-15.09,12.11l5.79,2.35-.16-.43v2.1c.06-.39,1.21-1.67,1.66-2.21.87-1.06,1.75-2.1,2.65-3.14,1.7-1.97,3.45-3.91,5.22-5.83,3.66-3.97,7.41-7.9,11.12-11.83,3.17-3.36-.8-8.11-4.78-6.2-5.06,2.44-9.46,5.93-13.84,9.41s-8.67,7.22-12.02,11.95-6.13,9.75-9.13,14.63c-3.26,5.35-6.51,10.69-9.71,16.07-2.6,4.37,4.21,8.34,6.81,3.97h0l.03-.02Z"/><path class="cls-20" d="m369.06,39.87v-.84c.02-.54-.09-1.06-.35-1.51-.16-.49-.43-.91-.82-1.26-.36-.38-.77-.66-1.26-.82-.47-.25-.98-.36-1.51-.35l-1.04.14c-.66.19-1.25.52-1.73,1.01l-.62.8c-.36.62-.54,1.28-.54,1.99v.84c-.02.54.09,1.06.35,1.51.16.49.43.91.82,1.26.36.38.77.66,1.26.82.47.25.98.36,1.51.35l1.04-.14c.66-.19,1.25-.52,1.73-1.01l.62-.8c.36-.62.54-1.28.54-1.99h0Z"/><path class="cls-20" d="m379.66,9.26c7.66,2.74,9.56,13.7,10.09,20.7.68,8.86-.84,17.83-4.62,25.89l7.35,1.99c-.58-8.77,2.79-17.19,3.66-25.84.44-4.4-6.92-5.41-7.74-1.04-1.4,7.36-3.15,14.65-5.28,21.84-1.07,3.6-2.22,7.16-3.48,10.69-.35.99-.69,2.84-1.28,3.66-.28.39-1.36.93-1.69,1.21-.65.55-1.17,1.17-1.55,1.92-2.3,4.53,4.05,8.26,6.81,3.97,3.78-5.9,8.07-11.35,12.79-16.54,4.35-4.79,8.58-10.19,7.82-17.06-.39-3.58-1.37-7.05-1.73-10.66-.33-3.33-.65-6.72-1.89-9.86-2.24-5.66-7.38-9.75-9.27-15.5l-5.79,4.45c6.48,2.92,12.09,7.49,15.88,13.55,2.07,3.31,3.55,6.89,4.43,10.69.43,1.78.71,3.6.82,5.42.06,1.02.09,2.07.08,3.11,0,.57-.03,1.15-.06,1.72,0,.24-.03.46-.05.69-.03.49-.05.46-.05-.11l5.39-1.42c-.73-.44-.96-1.43-1.2-2.24-.49-1.67-.85-3.37-1.28-5.06-.88-3.48-1.8-6.95-2.78-10.41s-2.07-6.48-3.91-9.41-3.63-5.6-4.87-8.75l-5.79,4.45c4.01,2.08,8.2,4.15,11.65,7.1,3.64,3.11,5.93,6.89,7.33,11.46,1.53,4.94,2.84,10.31,3.36,15.45.22,2.24-1.43,4.7-1.97,6.86-.68,2.78-.98,5.65-.9,8.5.11,4.59,6.26,5.17,7.74,1.04,2.6-7.22,4.43-14.14,3.07-21.84-1.25-7.11-3-14.22-6.26-20.7l-6.81,3.97c1.55,2.85,3.09,5.69,4.62,8.55,1.36,2.51,2.78,4.87,2.44,7.81-.24,2.11,1.97,3.94,3.94,3.94,2.32,0,3.71-1.81,3.94-3.94.41-3.75-1.12-7.27-2.84-10.52s-3.55-6.54-5.31-9.82c-2.43-4.49-9.07-.54-6.81,3.97,2.82,5.65,4.18,11.97,5.33,18.13,1.15,6.17-.79,12.33-2.95,18.34l7.74,1.04c-.06-2.79.25-5.46,1.1-8.14.43-1.36,1.1-2.63,1.48-4.01.44-1.62.33-3.17.09-4.81-.84-5.77-1.96-11.7-3.85-17.24-1.78-5.19-4.54-9.84-8.72-13.47s-8.75-6.07-13.48-8.53c-2.74-1.42-7.14,1.01-5.79,4.45,1.36,3.44,3.2,6.8,5.28,10.03s3.11,6.64,4.12,10.36c1.09,3.96,2.08,7.93,3.09,11.91.84,3.33,2.13,6.4,5.17,8.28,1.96,1.2,4.16.27,5.39-1.42,1.43-1.96,1.28-5,1.25-7.32-.03-2.54-.32-5.06-.76-7.55-.85-4.71-2.59-9.35-5-13.5-4.42-7.63-11.32-13.84-19.36-17.46-2.87-1.29-6.97.88-5.79,4.45,1.88,5.68,6.21,9.62,8.91,14.81,1.36,2.6,1.67,5.58,1.97,8.45.35,3.47,1.01,6.81,1.64,10.23,1.06,5.87-3.66,9.89-7.19,13.88-4.49,5.05-8.58,10.47-12.22,16.16l6.81,3.97c-.06.11.73-.52.82-.58.85-.62,1.56-1.28,2.13-2.18.98-1.55,1.5-3.5,2.11-5.22,1.26-3.53,2.43-7.08,3.52-10.68,2.24-7.41,4.05-14.95,5.5-22.55l-7.74-1.04c-.87,8.69-4.24,16.98-3.66,25.84.11,1.75,1.15,3.33,2.9,3.8,1.58.43,3.72-.25,4.45-1.81,4.67-9.92,6.75-21,5.5-31.93s-4.76-22.33-15.69-26.24c-2-.73-4.32.8-4.86,2.76-.6,2.19.74,4.13,2.76,4.86h0l-.05.03Z"/><path class="cls-20" d="m401.66,48.02c5.08,0,5.08-7.88,0-7.88s-5.08,7.88,0,7.88h0Z"/><path class="cls-5" d="m1.84,509.71c2.24.35,7.38.85,13.14-1.56,4.4-1.84,7.22-4.59,8.69-6.23-4.16-1.4-8.31-2.82-12.47-4.23-3.12,4.01-6.23,8.01-9.35,12.02Z"/><ellipse class="cls-3" cx="82.56" cy="441.7" rx="2.96" ry="3.04"/><ellipse class="cls-3" cx="58.99" cy="428.9" rx="2.96" ry="3.04"/><polygon class="cls-3" points="81.13 418.81 83.95 420.81 83.46 417.59 81.13 418.81"/><path class="cls-1" d="m421.59,270.99h58.69"/><path class="cls-1" d="m421.21,271.15c5.19.03,28.94-.03,61.47-.33"/><path class="cls-11" d="m495.94,270.77c16.76.06,33.52.13,50.29.17,6.13.02,10.74,5.61,9.57,11.64-7.95,41.11-15.89,82.22-23.84,123.33-.88,4.56-4.84,7.87-9.48,7.93l-309.95,3.97c-4.65.06-8.69-3.15-9.68-7.7l-24.02-110.1-3.74-17.16c-1.32-6.1,3.33-11.87,9.57-11.87,155.61-.06,217.94-.05,222.2,0"/><path class="cls-8" d="m102.13,434.84c.25.16,1.97,1.18,2.22,1.34l16.92-22.27-13.8-10.69c24.49-32.66,48.98-65.3,73.47-97.96"/><path class="cls-8" d="m408.85,283.42h-.16c-2.74,0-72.02.24-230.02.79-27.89,36.11-55.79,72.22-83.68,108.35l-13.8-8.91-20.04,24.93"/><path class="cls-8" d="m482.2,283.16c-41.47.06-57.49.11-60.69.14"/><path class="cls-8" d="m556.91,282.9c-20.7.06-44.06.06-64.76.13"/><ellipse class="cls-10" cx="269.22" cy="448.61" rx="15.61" ry="15.89"/><circle class="cls-12" cx="269.35" cy="448.9" r="23.18"/><ellipse class="cls-9" cx="469.18" cy="446.85" rx="15.89" ry="15.61" transform="translate(-22.79 868.47) rotate(-84.2)"/><circle class="cls-12" cx="469.14" cy="446.71" r="23.18"/><path class="cls-8" d="m74.38,407.23c2.48-3.31,4.95-6.62,7.43-9.95l24.93,18.7c-2.35,2.9-4.7,5.82-7.05,8.72"/><path class="cls-8" d="m10.86,497.18c-1.64-3.44-6.91-15.55-3.12-30.5,4.62-18.26,19.21-26.81,21.82-28.27,2.85-1.59,6.84-4.24,10.69-8.45,3.26-3.58,5.35-7.11,6.69-9.79,9.45-12.22,25.8-16.08,38.51-9.79,10.47,5.19,17.03,16.56,16.7,28.94v9.35c1.4,2.05,3.37,5.55,4.01,10.23.65,4.78.11,12.32-3.12,13.36-.84.27-2.13.21-8.01-4.67-4.07-3.36-7.19-6.43-9.35-8.69,6.26,7.17,9.08,13.96,10.47,18.26,1.84,5.77,3.99,12.47.66,15.58-3.88,3.63-12.46-.24-12.91-.44l-11.13,3.56c3.19,4.38,4.23,7.71,3.12,10.01-2.63,5.46-17.33,5.08-44.07-1.12l-14.66-5.3-6.26-2.27h-.02Z"/><path class="cls-14" d="m326.98,171.49c-.38-4.76-1.81-13.4-7.99-21.4-6.97-9-16.23-12.35-22.06-14.44-6.2-2.24-11.64-3.03-15.36-3.34-6.07-.66-15.96-.95-27.37,2.44-8.48,2.51-14.98,6.21-19.36,9.21-2.78-5.74-5.53-11.48-8.31-17.22l-2.96,17.8-16.62,7.13,15.44,4.75c-2.19,3.09-5.05,7.7-7.35,13.73-2.21,5.8-8.39,22.03-1.86,37.92,7.36,17.91,26.51,24.74,36.8,28.42,7.55,2.7,14.16,3.75,18.7,4.23-7.52-5.93-15.04-11.87-22.57-17.8"/><path class="cls-8" d="m268.65,240.72l-.88,12.47-2.71,1.12c-5.57,1.21-12.16,3.07-19.32,6.01-7.32,3-13.43,6.39-18.32,9.49,36.16.39,72.33.79,108.49,1.18-4.64-3.2-10.12-6.58-16.48-9.79-6.64-3.36-12.88-5.85-18.4-7.71l2.45-9.51"/><path class="cls-8" d="m263.67,254.97c4.51,7.02,12.84,11.81,21.01,11.27,11.39-.74,17.83-10.47,18.37-11.35"/><ellipse class="cls-2" cx="316.81" cy="188.26" rx="3.17" ry="8.45" transform="translate(-29.95 63.49) rotate(-10.93)"/><ellipse class="cls-2" cx="282.43" cy="195.9" rx="3.56" ry="8.45" transform="translate(-32.02 57.11) rotate(-10.93)"/><path class="cls-6" d="m295.69,215.69l23.26-4.13c-.8,5.55-4.53,10.16-9.57,11.8-6.18,2-13.34-.77-16.92-6.91l3.23-.76Z"/><path class="cls-8" d="m377.28,246.8c.5-3.28.9-8.5-.6-14.59-3.71-15.07-14.74-18.01-19.29-27.96-8.28-18.12,17.99-31.05,19.58-59.21.54-9.4-1.55-22.86-13.96-39.55l-9.49-.5,7.71-8.06c-6.56-4.51-18.5-14.05-24.49-29.35-6.53-16.67-5.57-43.41,13.8-57.82,19.47-14.49,49.81-10.53,63.99,8.29,14.76,19.6,3.96,45.04,2.79,47.64-12.79,28.81-46.3,32.66-47.84,32.81,1.01,1.99,2.02,3.99,3.03,5.98-3.48.44-6.97.87-10.44,1.31"/><path class="cls-7" d="m406.29,34.43c0,5.85-2.29,11.92-3.78,11.8-1.61-.13-2.29-7.47-2.29-11.91s.68-11.56,2.29-11.68c1.48-.13,3.78,5.94,3.78,11.8h0Z"/><ellipse class="cls-7" cx="403.63" cy="56.25" rx="3.56" ry="4.67"/><path class="cls-3" d="m427.69,203.39c0,4.67-1.59,8.45-3.56,8.45s-3.56-3.78-3.56-8.45,1.59-8.45,3.56-8.45,3.56,3.78,3.56,8.45Z"/><path class="cls-3" d="m465.28,205.39c0,4.67-1.59,8.45-3.56,8.45s-3.56-3.78-3.56-8.45,1.59-8.45,3.56-8.45,3.56,3.78,3.56,8.45Z"/><path class="cls-8" d="m407.55,204.07c-1.15,1.96-5.31,9.56-3.56,19.58,1.72,9.89,8.04,15.58,9.79,17.06,4.15,2.79,13.59,8.33,26.87,9.21,15.17,1.01,26.43-4.67,30.72-7.13,2.78-2.07,5.91-4.73,9.05-8.17,4.75-5.17,7.88-10.33,9.95-14.4,1.15-.28,2.57-.76,4.01-1.64,8.42-5.08,12.11-19.73,6.69-24.63-3.45-3.12-9.78-1.58-12.47-.74-4.84-4.56-9.7-9.1-14.54-13.66l1.78,13.66c-4.34-1.43-10.85-4.19-17.52-9.49-7.29-5.82-11.61-12.2-13.96-16.32.09,5.35.21,10.69.3,16.02-2.37-1.61-5.79-4.34-8.91-8.61-2.98-4.08-4.53-8.01-5.35-10.69-1.26,3.83-3.14,8.42-5.93,13.36-2.95,5.2-6.13,9.34-8.91,12.47l-4.45-10.09c-1.18,8.06-2.38,16.13-3.56,24.19v.02Z"/><path class="cls-8" d="m422.91,245.73c.49,1.28,1.55,4.53.66,8.58-.98,4.53-3.77,7.22-4.75,8.09,1.07,1.56,3.94,6.13,3.86,12.61-.08,6.78-3.33,11.43-4.45,12.91.49,1.18,4.18,10.41-.88,19.36-3.31,5.83-8.5,8.33-10.39,9.13-.85-1.48-4.24-7.74-2.52-15.8,1.56-7.33,6.35-11.51,7.79-12.69-.8-.84-5.68-6.09-5.12-14.02.5-7.19,5.11-11.51,6.09-12.39-3.58-3.8-8.47-9.86-12.09-18.32-5.74-13.42-5.05-25.23-4.23-36.73.69-9.89,2.96-25.17,10.69-42.75,2.11-3.89,8.48-14.38,21.59-20.48,8.72-4.05,16.7-4.43,21.15-4.3,5.36-.36,15.31-.3,26.49,4.3,13.39,5.5,21.22,14.49,24.57,18.84,2.71,6.2,6.13,15.5,7.95,27.23,1.45,9.38,3.14,20.37-.52,33.62-1.56,5.63-5.2,15.72-14.4,26.05,1.04,2.81,2.08,6.69,2.22,11.35.32,10.22-3.91,17.85-6.01,21.15.99,1.61,4.49,7.65,3.34,15.8-1.17,8.28-6.32,13.15-7.71,14.4-1.25-1.31-7.85-8.52-7.19-19.06.39-6.34,3.22-10.88,4.67-12.91-1.14-2.7-3.64-9.76-1.78-18.48,1.31-6.13,4.23-10.44,6.01-12.69-2.3-4.3-4.6-8.61-6.91-12.91"/><line class="cls-8" x1="440.65" y1="249.92" x2="443.62" y2="262.98"/><polyline class="cls-8" points="468.11 245.18 468.11 252.75 487.93 248.52"/><path class="cls-8" d="m440.95,254.97c-6.48,1.23-12.96,2.48-19.44,3.71"/><path class="cls-8" d="m496.9,246.52c5.28,1.14,11.2,2.81,17.5,5.3,13.7,5.42,23.98,12.68,31.03,18.67"/><path class="cls-8" d="m369.79,241.98c-2.93,1.75-4.86,4.35-4.53,6.75.22,1.58,1.4,2.63,3.78,4.75,2.29,2.03,3.48,3.11,5.27,3.12,2.38.02,4.12-1.86,4.67-2.52"/><path class="cls-8" d="m365.4,250.97c-.74.84-2.24,2.74-1.92,4.9.63,4.32,8.26,7.3,11.65,4.67,1.51-1.18,1.84-3.22,1.92-4.3"/><path class="cls-8" d="m364.52,258.23c-1.75,2.48-1.94,5.44-.6,7.13,1.92,2.4,6.37,1.47,8.8-.49,1.69-1.36,2.32-3.15,2.55-4.07"/><line class="cls-8" x1="371.49" y1="265.8" x2="376.68" y2="269.97"/><path class="cls-8" d="m385.51,249.91c-1.58-1.45-3.15-2.03-4.01-2.29-.77-.22-4.26-1.21-6.31.55-1.37,1.18-1.1,2.74-1.7,2.82-1.48.17-5.66-8.88-2.9-11.61,2.32-2.29,8.89.47,12.91,3.56,4.95,3.82,5.28,7.58,9.35,13.21,2.49,3.45,7.37,8.55,14.64,12.57"/><path class="cls-8" d="m384.55,254.83c-.47.08-7.66,1.15-10.23-2.82-.28-.44-.54-.99-.71-1.67"/><path class="cls-4" d="m430.92,222.47l21.37,1.78c-.11,6.58-5.08,11.57-10.23,11.8-5.98.27-12.08-5.87-11.13-13.58h0Z"/><path class="cls-8" d="m429.93,257.53c2.32,2.54,8.97,9.15,19.3,10.5,12.88,1.69,26.22-5.52,33.79-18.29"/><path class="cls-8" d="m327.2,172.37c.73,1.64,1.4,3.45,2,5.42,1.97,6.48,2.29,12.38,2.08,16.92,2.3,3.17,8.01,11.95,6.23,22.27-2.89,16.83-23.23,23.57-29.24,25.53-17.69,5.77-33.46.63-39.63-1.78-7.52-5.93-15.04-11.87-22.57-17.8-2.22.13-7.79.13-12.39-3.56-7.73-6.18-9.37-19.99-3.56-24.27,4.24-3.11,11.23-.25,12.99.52,7.92-11.27,15.83-22.57,23.75-33.84l2.96,23.15,20.18-28.49,20.18,16.02c-.35-4.84-.69-9.7-1.04-14.54,6.01,4.83,12.02,9.65,18.04,14.48v-.02Z"/><path class="cls-15" d="m431.41,223.54c-.12.82-.21,2.27.29,3.95.64,2.13,1.89,3.47,2.51,4.06-.06-.38-.47-3.01,1.36-5.2,2.03-2.43,5.09-2.27,5.79-2.21.02,0,.14.01.14.01,0,.02-5.27-.31-10.09-.61Z"/><path class="cls-15" d="m314.73,221.17c.06-.38.47-3.01-1.36-5.2-2.24-2.68-5.74-2.21-5.93-2.19,3.36-.21,7.77-1.34,11.13-1.56,0,0-2.91,6.29-3.84,8.95Z"/></g></g><g id="Layer_7"><path class="cls-15" d="m406.63,316.12c-.88-1.77-3.39-7.4-2.04-14.64,1.39-7.46,5.99-11.86,7.45-13.16-1.38-1.64-3.09-4.18-3.96-7.61-2.48-9.72,3.98-17.89,4.91-19.02-6.83-9.22-15.89-24.79-16.9-44.72-.74-14.69,3.09-27.76,5.58-36.25,2.53-8.63,5.46-15.58,7.75-20.45,3.71-4.75,11.18-12.85,23.24-17.66,24.93-9.95,48.03,2.71,51.43,4.65,3.99,2.09,10.8,6.38,16.42,14.25,8.81,12.34,8.86,25.32,8.68,29.74,1.12,5.47,2.15,13.7.93,23.55-1.16,9.35-3.91,16.75-6.2,21.69-3.3,4.13-6.61,8.26-9.91,12.39,1.02,3.3,2.1,8.24,1.86,14.25-.34,8.41-3.12,14.8-4.96,18.28,1.07,1.89,4.2,7.99,3.1,16.11-1.08,8-5.59,13-7.13,14.56-1.53-1.64-7.06-7.94-7.44-17.66-.31-7.94,2.99-13.7,4.34-15.8-1.04-2.6-3.28-9.2-1.55-17.35,1.28-6.03,4.16-10.24,5.89-12.39-.85-.7-6.55-5.57-6.45-13.21.09-7.01,5-11.52,6.63-13.01,3.66-3.36,5.1-2.25,8.59-5.15,6.08-5.08,9.9-15.32,6.14-21.35-1.28-2.05-3.8-4.2-7.12-4.66-3.56-.5-6.3,1.18-7.12,1.72-7.39-6.11-14.78-12.23-22.17-18.34l-10.72-9.65c-1.72.17-4.46.39-7.84.35-10.45-.13-11.84-2.53-16.57-1.17-4.58,1.31-4.45,3.89-12.8,9.12-3.28,2.05-6.13,3.42-7.94,4.23-.55,5.11-1.28,10.5-2.25,16.14-.93,5.4-1.98,10.52-3.11,15.33-.61,1.85-4.21,13.47,2.48,24.79,4.76,8.05,12.02,11.37,14.56,12.39.5,1.29,1.35,3.98.86,7.36-.65,4.59-3.33,7.47-4.28,8.4,1.14,2.11,3.24,6.7,3.17,12.84-.07,6.72-2.7,11.59-3.96,13.63.46,1.07,4.03,9.81-.79,18.39-3.46,6.14-9.12,8.47-10.8,9.09Z"/><path class="cls-15" d="m410.74,177.75l4.54,12.54c2.81-3.24,5.99-7.45,8.94-12.68,2.48-4.4,4.24-8.54,5.5-12.11.67,2.3,1.84,5.34,3.96,8.51,3.59,5.36,8.05,8.34,10.67,9.82-.32-6.44-.64-12.88-.95-19.32,2.14,4.18,5.5,9.6,10.69,14.96,8.11,8.38,16.82,12.65,22.22,14.77-1.56-5.5-2.9-12.73-2.62-21.18.1-3.11.41-5.99.83-8.61-16.15-5.15-32.31-10.29-48.46-15.44l-15.31,28.74Z"/></g></svg>
